<svg width="58" height="41" viewBox="0 0 58 41" fill="none" xmlns="http://www.w3.org/2000/svg">
<g filter="url(#filter0_d_23_2)">
<path d="M5.00002 27.68C4.20002 27.68 3.66669 27.52 3.40002 27.2C3.13336 26.88 3.13336 26.56 3.40002 26.24C3.66669 25.92 4.20002 25.76 5.00002 25.76C4.33336 25.6 3.86669 25.3334 3.60002 24.96C3.36002 24.56 3.28002 24.1734 3.36002 23.8C3.46669 23.4 3.72002 23.0934 4.12002 22.88C4.54669 22.6667 5.09336 22.64 5.76002 22.8C5.41336 22.3467 5.30669 21.8667 5.44002 21.36C5.60002 20.8267 5.89336 20.3334 6.32002 19.88C6.74669 19.4267 7.24002 19.0667 7.80002 18.8C8.38669 18.5334 8.94669 18.4134 9.48002 18.44C10.0134 18.4667 10.44 18.7067 10.76 19.16C10.1467 18.3067 9.85336 17.6534 9.88002 17.2C9.93336 16.72 10.1867 16.52 10.64 16.6C11.12 16.68 11.68 17.1467 12.32 18C11.84 17.3867 11.64 16.8 11.72 16.24C11.8267 15.6534 12.1067 15.1867 12.56 14.84C13.0134 14.4667 13.52 14.2934 14.08 14.32C14.6667 14.3467 15.2 14.6667 15.68 15.28C15.28 14.8267 15.12 14.4134 15.2 14.04C15.28 13.6667 15.48 13.4267 15.8 13.32C16.1467 13.2134 16.52 13.32 16.92 13.64C16.6 13.2667 16.48 12.88 16.56 12.48C16.6667 12.08 16.88 11.7734 17.2 11.56C16.8534 11.3734 16.5867 11.1067 16.4 10.76C16.24 10.3867 16.1734 10.0134 16.2 9.64002C15.9334 9.61336 15.6934 9.50669 15.48 9.32002C15.2667 9.13336 15.1067 8.88002 15 8.56002C14.92 8.96002 14.6667 9.36002 14.24 9.76002C13.8134 10.1334 13.32 10.4534 12.76 10.72C12.2 10.96 11.6667 11.08 11.16 11.08C10.68 11.0534 10.3334 10.8534 10.12 10.48C10.12 11.2267 9.90669 11.7867 9.48002 12.16C9.08002 12.5067 8.60002 12.68 8.04002 12.68C7.48002 12.68 6.98669 12.5067 6.56002 12.16C6.16002 11.7867 5.96002 11.2267 5.96002 10.48C5.24002 10.4534 4.70669 10.3067 4.36002 10.04C4.01336 9.74669 3.84002 9.42669 3.84002 9.08002C3.86669 8.73336 4.06669 8.44002 4.44002 8.20002C4.81336 7.96002 5.36002 7.85336 6.08002 7.88002C5.46669 7.42669 5.12002 6.93336 5.04002 6.40002C4.98669 5.86669 5.10669 5.38669 5.40002 4.96002C5.72002 4.53336 6.14669 4.26669 6.68002 4.16002C7.21336 4.05336 7.78669 4.21336 8.40002 4.64002C8.08002 4.05336 8.02669 3.50669 8.24002 3.00002C8.45336 2.49336 8.81336 2.10669 9.32002 1.84002C9.82669 1.57336 10.3467 1.49336 10.88 1.60002C11.4134 1.68002 11.84 2.02669 12.16 2.64002C12.1067 1.97336 12.3334 1.45336 12.84 1.08002C13.3467 0.680023 13.9467 0.440023 14.64 0.360024C15.36 0.280023 16 0.38669 16.56 0.680022C17.1467 0.94669 17.48 1.41336 17.56 2.08002C17.64 1.20002 17.8534 0.640024 18.2 0.400023C18.5467 0.133357 18.8667 0.160023 19.16 0.480022C19.4534 0.800023 19.56 1.38669 19.48 2.24002C19.6667 1.62669 20.0134 1.22669 20.52 1.04002C21.0267 0.853357 21.5334 0.840023 22.04 1.00002C22.5734 1.16002 22.9867 1.46669 23.28 1.92002C23.6 2.34669 23.6534 2.88002 23.44 3.52002C24 2.77336 24.5334 2.40002 25.04 2.40002C25.5734 2.37336 25.8934 2.61336 26 3.12002C26.1334 3.60002 25.92 4.21336 25.36 4.96002C25.9734 4.58669 26.5067 4.42669 26.96 4.48002C27.4134 4.50669 27.7334 4.68002 27.92 5.00002C28.1067 5.29336 28.12 5.65336 27.96 6.08002C27.8 6.48002 27.4134 6.88002 26.8 7.28002C27.44 7.25336 27.92 7.46669 28.24 7.92002C28.5867 8.34669 28.76 8.86669 28.76 9.48002C28.7867 10.0667 28.64 10.6 28.32 11.08C28.0267 11.5334 27.56 11.76 26.92 11.76C27.4534 12.1067 27.72 12.5734 27.72 13.16C27.7467 13.7467 27.5867 14.3067 27.24 14.84C26.8934 15.3467 26.4534 15.72 25.92 15.96C25.3867 16.1734 24.8534 16.1067 24.32 15.76C24.6667 16.16 24.7867 16.5867 24.68 17.04C24.6 17.4934 24.3734 17.92 24 18.32C23.6534 18.6934 23.24 18.96 22.76 19.12C22.3067 19.28 21.88 19.28 21.48 19.12C21.7467 19.44 21.8534 19.8534 21.8 20.36C22.3867 20.3867 22.92 20.5734 23.4 20.92C23.9067 21.24 24.1334 21.72 24.08 22.36C24.08 21.56 24.2534 21.0267 24.6 20.76C24.9467 20.4667 25.2934 20.4667 25.64 20.76C25.9867 21.0267 26.16 21.56 26.16 22.36C26.6667 22.1467 27.12 22.1867 27.52 22.48C27.9467 22.7734 28.2667 23.1734 28.48 23.68C28.6934 24.1867 28.76 24.6934 28.68 25.2C28.6 25.68 28.3067 26.0267 27.8 26.24C28.12 26.64 28.2267 27.04 28.12 27.44C28.04 27.8134 27.84 28.1334 27.52 28.4C27.2 28.64 26.84 28.7734 26.44 28.8C26.04 28.8 25.68 28.6 25.36 28.2C25.36 28.7067 25.1734 29.1067 24.8 29.4C24.4267 29.72 23.96 29.9334 23.4 30.04C22.84 30.1467 22.28 30.1467 21.72 30.04C21.16 29.9334 20.6934 29.72 20.32 29.4C19.9467 29.1067 19.76 28.7067 19.76 28.2C19.76 28.84 19.56 29.32 19.16 29.64C18.7867 29.9867 18.3467 30.16 17.84 30.16C17.3334 30.16 16.88 29.9867 16.48 29.64C16.1067 29.32 15.92 28.84 15.92 28.2C15.92 29 15.6534 29.5867 15.12 29.96C14.5867 30.36 13.9734 30.56 13.28 30.56C12.5867 30.56 11.9734 30.36 11.44 29.96C10.9067 29.5867 10.64 29 10.64 28.2C10.64 28.84 10.4267 29.3067 10 29.6C9.60002 29.92 9.12002 30.08 8.56002 30.08C8.00002 30.08 7.50669 29.92 7.08002 29.6C6.68002 29.3067 6.48002 28.84 6.48002 28.2C6.48002 29.16 6.34669 29.7867 6.08002 30.08C5.81336 30.4 5.56002 30.36 5.32002 29.96C5.08002 29.56 4.97336 28.8 5.00002 27.68ZM41.8041 28.16C41.0841 28.16 40.5374 27.9067 40.1641 27.4C39.7908 26.8934 39.6041 26.3067 39.6041 25.64C39.6041 24.9467 39.7908 24.3467 40.1641 23.84C40.5374 23.3334 41.0841 23.08 41.8041 23.08C40.7908 23.08 40.1108 22.9067 39.7641 22.56C39.4174 22.2134 39.4174 21.8667 39.7641 21.52C40.1108 21.1734 40.7908 21 41.8041 21C41.0041 21 40.4041 20.8534 40.0041 20.56C39.6308 20.24 39.4441 19.88 39.4441 19.48C39.4441 19.08 39.6308 18.7334 40.0041 18.44C40.4041 18.1467 41.0041 18 41.8041 18C41.2974 18 40.8974 17.7867 40.6041 17.36C40.3108 16.9067 40.1108 16.36 40.0041 15.72C39.9241 15.08 39.9508 14.4667 40.0841 13.88C39.7908 13.7734 39.5641 13.56 39.4041 13.24C39.2174 13.64 38.8708 13.8934 38.3641 14C37.8574 14.1067 37.4174 13.9067 37.0441 13.4C36.9108 13.9334 36.6708 14.3067 36.3241 14.52C35.9774 14.7067 35.6041 14.76 35.2041 14.68C34.8308 14.5734 34.5241 14.36 34.2841 14.04C34.0708 13.6934 34.0174 13.2534 34.1241 12.72C33.6441 12.7734 33.2574 12.6134 32.9641 12.24C32.6708 11.8667 32.4974 11.44 32.4441 10.96C32.4174 10.4534 32.5108 10 32.7241 9.60002C32.9374 9.17336 33.2841 8.93336 33.7641 8.88002C33.3641 8.34669 33.2041 7.84002 33.2841 7.36002C33.3641 6.85336 33.5908 6.45336 33.9641 6.16002C34.3641 5.86669 34.8041 5.74669 35.2841 5.80002C35.7908 5.82669 36.2574 6.10669 36.6841 6.64002C36.2041 6.02669 35.9641 5.46669 35.9641 4.96002C35.9641 4.45336 36.1241 4.08002 36.4441 3.84002C36.7641 3.60002 37.1641 3.54669 37.6441 3.68002C38.1241 3.78669 38.6041 4.14669 39.0841 4.76002C38.7641 4.20002 38.7241 3.66669 38.9641 3.16002C39.2308 2.65336 39.6308 2.26669 40.1641 2.00002C40.6974 1.70669 41.2308 1.60002 41.7641 1.68002C42.3241 1.73336 42.7641 2.04002 43.0841 2.60002C43.0841 1.82669 43.2708 1.25336 43.6441 0.880022C44.0441 0.480022 44.4974 0.280023 45.0041 0.280023C45.5374 0.280023 46.0041 0.480022 46.4041 0.880022C46.8041 1.25336 47.0041 1.82669 47.0041 2.60002C46.9508 1.69336 47.1108 1.08002 47.4841 0.760024C47.8841 0.413357 48.2841 0.38669 48.6841 0.680022C49.1108 0.973357 49.3508 1.57336 49.4041 2.48002C50.0441 2.48002 50.5241 2.76002 50.8441 3.32002C51.1908 3.85336 51.3641 4.48002 51.3641 5.20002C51.3641 5.92002 51.1908 6.56002 50.8441 7.12002C50.5241 7.65336 50.0441 7.92002 49.4041 7.92002C50.4708 7.92002 51.1774 8.09336 51.5241 8.44002C51.8708 8.76002 51.8708 9.09336 51.5241 9.44002C51.1774 9.78669 50.4708 9.96002 49.4041 9.96002C50.0974 9.96002 50.6174 10.1734 50.9641 10.6C51.3108 11.0267 51.4841 11.52 51.4841 12.08C51.4841 12.6134 51.3108 13.0934 50.9641 13.52C50.6174 13.92 50.0974 14.12 49.4041 14.12C49.9641 14.12 50.4174 14.32 50.7641 14.72C51.1108 15.0934 51.3374 15.5734 51.4441 16.16C51.5508 16.72 51.5508 17.2934 51.4441 17.88C51.3374 18.44 51.1108 18.92 50.7641 19.32C50.4174 19.6934 49.9641 19.88 49.4041 19.88C50.2574 19.88 50.8174 20.0667 51.0841 20.44C51.3774 20.8134 51.3774 21.1867 51.0841 21.56C50.8174 21.9067 50.2574 22.08 49.4041 22.08C49.8841 22.08 50.2708 22.28 50.5641 22.68C50.8574 23.0534 51.0574 23.5334 51.1641 24.12C51.2708 24.68 51.2708 25.2534 51.1641 25.84C51.0574 26.4 50.8574 26.88 50.5641 27.28C50.2708 27.6534 49.8841 27.84 49.4041 27.84C49.4574 28.4534 49.2974 28.9334 48.9241 29.28C48.5774 29.6 48.1508 29.7867 47.6441 29.84C47.1374 29.8934 46.6708 29.7867 46.2441 29.52C45.8174 29.2534 45.5774 28.8134 45.5241 28.2C45.5241 28.8667 45.3241 29.36 44.9241 29.68C44.5508 30.0267 44.1108 30.2 43.6041 30.2C43.1241 30.2 42.6974 30.0267 42.3241 29.68C41.9508 29.36 41.7774 28.8534 41.8041 28.16Z" fill="#FF61F8"/>
</g>
<defs>
<filter id="filter0_d_23_2" x="0" y="0" width="57.0441" height="40.56" filterUnits="userSpaceOnUse" color-interpolation-filters="sRGB">
<feFlood flood-opacity="0" result="BackgroundImageFix"/>
<feColorMatrix in="SourceAlpha" type="matrix" values="0 0 0 0 0 0 0 0 0 0 0 0 0 0 0 0 0 0 127 0" result="hardAlpha"/>
<feOffset dx="1" dy="6"/>
<feGaussianBlur stdDeviation="2"/>
<feComposite in2="hardAlpha" operator="out"/>
<feColorMatrix type="matrix" values="0 0 0 0 0 0 0 0 0 0 0 0 0 0 0 0 0 0 1 0"/>
<feBlend mode="normal" in2="BackgroundImageFix" result="effect1_dropShadow_23_2"/>
<feBlend mode="normal" in="SourceGraphic" in2="effect1_dropShadow_23_2" result="shape"/>
</filter>
</defs>
</svg>
